<svg t="1695909642592" class="icon" viewBox="0 0 1024 1024" version="1.1" xmlns="http://www.w3.org/2000/svg" p-id="7832" width="200" height="200"><path d="M511.5 437c20.5 0 39.5 8.5 53 22s22 32.5 22 53-8.5 39.5-22 53-32.5 22-53 22-39.5-8.5-53-22-22-32.5-22-53 8.5-39.5 22-53 32.5-22 53-22z" fill="#FFF433" p-id="7833" data-spm-anchor-id="a313x.search_index.0.i3.44bc3a81aydc3Q" class="selected"></path><path d="M176 345c28-56.5 70.5-105.5 123-141.5 62.5-43 136.5-66 212.5-66 99.5 0 194.5 39.5 265 110s110 165.5 110 265-39.5 194.5-110 265-165.5 110-265 110c-94 0-184-35-253.5-98.5s-112-150-120-243.5l-1.5-15 59.5-5 1.5 15c7 78.5 42.5 151.5 101 205 58 53.5 134 82.5 212.5 82.5 84 0 163.5-33 222.5-92s92-139 92-222.5c0-84-33-163.5-92-222.5s-139-92-222.5-92c-64 0-126 19.5-178.5 55.5-41 28.5-74.5 65.5-98 109l-58.5-17v-1.5z" fill="#76569A" p-id="7834"></path><path d="M325.5 369.5l-141 47.5-14 4.5-5-14-47.5-141.5z" fill="#76569A" p-id="7835"></path></svg>
